<?xml version="1.0" encoding="UTF-8"?>
<svg xmlns="http://www.w3.org/2000/svg" width="128" height="128" viewBox="0 0 128 128">
  <defs>
    <linearGradient id="body" x1="24" y1="14" x2="102" y2="116" gradientUnits="userSpaceOnUse">
      <stop offset="0" stop-color="#62a0ea"/>
      <stop offset="0.55" stop-color="#3584e4"/>
      <stop offset="1" stop-color="#1c71d8"/>
    </linearGradient>
    <linearGradient id="rim" x1="38" y1="28" x2="91" y2="103" gradientUnits="userSpaceOnUse">
      <stop stop-color="#d0e6ff"/>
      <stop offset="0.45" stop-color="#99c1f1"/>
      <stop offset="1" stop-color="#62a0ea"/>
    </linearGradient>
    <linearGradient id="key" x1="54" y1="44" x2="82" y2="91" gradientUnits="userSpaceOnUse">
      <stop stop-color="#f9f06b"/>
      <stop offset="0.55" stop-color="#f8e45c"/>
      <stop offset="1" stop-color="#e5a50a"/>
    </linearGradient>
    <filter id="shadow" x="-20%" y="-20%" width="140%" height="150%">
      <feGaussianBlur in="SourceAlpha" stdDeviation="3"/>
      <feOffset dy="3"/>
      <feComponentTransfer>
        <feFuncA type="linear" slope="0.25"/>
      </feComponentTransfer>
      <feMerge>
        <feMergeNode/>
        <feMergeNode in="SourceGraphic"/>
      </feMerge>
    </filter>
  </defs>

  <path d="M25 18C25 11.9 29.9 7 36 7h56c6.1 0 11 4.9 11 11v88c0 8.3-6.7 15-15 15H40c-8.3 0-15-6.7-15-15z"
        fill="#1a5fb4" opacity=".28"/>
  <rect x="19" y="7" width="90" height="108" rx="20" fill="url(#body)" filter="url(#shadow)"/>
  <path d="M28 27c0-6.1 4.9-11 11-11h50c6.1 0 11 4.9 11 11v9H28z"
        fill="#ffffff" opacity=".16"/>
  <circle cx="64" cy="62" r="32" fill="#1a5fb4" opacity=".45"/>
  <circle cx="64" cy="59" r="31" fill="url(#rim)"/>
  <circle cx="64" cy="59" r="24" fill="#1c71d8"/>
  <path d="M46 43a24 24 0 0 1 34-2" fill="none" stroke="#ffffff"
        stroke-width="4" stroke-linecap="round" opacity=".22"/>

  <g filter="url(#shadow)">
    <circle cx="64" cy="53" r="9" fill="url(#key)"/>
    <path d="M59.5 59h9l3 28-7.5 7-7.5-7z" fill="url(#key)"/>
    <path d="M64 64v23" fill="none" stroke="#fff7a8" stroke-width="2.5"
          stroke-linecap="round" opacity=".65"/>
  </g>

  <path d="M31 102h66" fill="none" stroke="#0d4f9c" stroke-width="3"
        stroke-linecap="round" opacity=".3"/>
</svg>

